<svg width="24" height="24" viewBox="0 0 24 24" fill="none" xmlns="http://www.w3.org/2000/svg">
    <path d="M11.8734 7.11853C9.33311 7.11853 7.22827 9.18708 7.22827 11.7637C7.22827 14.3403 9.29682 16.4089 11.8734 16.4089C14.45 16.4089 16.5186 14.304 16.5186 11.7637C16.5186 9.22337 14.4138 7.11853 11.8734 7.11853ZM11.8734 14.7395C10.2404 14.7395 8.89763 13.3968 8.89763 11.7637C8.89763 10.1306 10.2404 8.78788 11.8734 8.78788C13.5065 8.78788 14.8492 10.1306 14.8492 11.7637C14.8492 13.3968 13.5065 14.7395 11.8734 14.7395Z"
          fill="#324552"/>
    <path d="M16.7001 8.06208C17.2814 8.06208 17.7525 7.5909 17.7525 7.00966C17.7525 6.42843 17.2814 5.95724 16.7001 5.95724C16.1189 5.95724 15.6477 6.42843 15.6477 7.00966C15.6477 7.5909 16.1189 8.06208 16.7001 8.06208Z"
          fill="#324552"/>
    <path d="M19.4219 4.28789C18.4784 3.30805 17.1356 2.79999 15.6114 2.79999H8.13563C4.97837 2.79999 2.87354 4.90483 2.87354 8.06208V15.5016C2.87354 17.0621 3.3816 18.4048 4.39773 19.3847C5.37757 20.3282 6.68402 20.8 8.17192 20.8H15.5751C17.1356 20.8 18.4421 20.2919 19.3856 19.3847C20.3655 18.4411 20.8735 17.0984 20.8735 15.5379V8.06208C20.8735 6.53789 20.3655 5.23144 19.4219 4.28789ZM19.2768 15.5379C19.2768 16.6629 18.8776 17.5702 18.2243 18.1871C17.5711 18.804 16.6639 19.1306 15.5751 19.1306H8.17192C7.08321 19.1306 6.17595 18.804 5.52273 18.1871C4.8695 17.5339 4.54289 16.6266 4.54289 15.5016V8.06208C4.54289 6.97337 4.8695 6.06612 5.52273 5.41289C6.13966 4.79596 7.08321 4.46934 8.17192 4.46934H15.6477C16.7364 4.46934 17.6437 4.79596 18.2969 5.44918C18.9139 6.10241 19.2768 7.00966 19.2768 8.06208V15.5379Z"
          fill="#324552"/>
</svg>
