<svg width="24" height="24" viewBox="0 0 24 24" fill="none" xmlns="http://www.w3.org/2000/svg">
    <path fill-rule="evenodd" clip-rule="evenodd"
          d="M20.1056 3H3.78261C3.3354 3 3 3.3354 3 3.78261V20.2174C3 20.5528 3.3354 20.8882 3.78261 20.8882H20.2174C20.6646 20.8882 21 20.5528 21 20.1056V3.78261C20.8882 3.3354 20.5528 3 20.1056 3V3ZM8.25478 18.205H5.68335V9.70808H8.36658V18.205H8.25478ZM7.02493 8.59006C6.13052 8.59006 5.45972 7.80746 5.45972 7.02485C5.45972 6.13044 6.13052 5.45963 7.02493 5.45963C7.91934 5.45963 8.59015 6.13044 8.59015 7.02485C8.47835 7.80746 7.80754 8.59006 7.02493 8.59006V8.59006ZM18.2049 18.205H15.5217V14.0683C15.5217 13.0621 15.5217 11.8323 14.1801 11.8323C12.8385 11.8323 12.6149 12.9503 12.6149 14.0683V18.3168H9.93164V9.70808H12.5031V10.8261V10.8261C12.8385 10.1553 13.7329 9.48447 14.9627 9.48447C17.6459 9.48447 18.0931 11.2733 18.0931 13.5093V18.205H18.2049Z"
          fill="#324552"/>
</svg>
