<svg width="107" height="38" viewBox="0 0 107 38" fill="none" xmlns="http://www.w3.org/2000/svg">
<path d="M10.792 15.896H17.968V20H5.2V4.16H10.792V15.896ZM26.8225 3.92C29.3505 3.92 31.3185 4.632 32.7265 6.056C34.1505 7.48 34.8625 9.488 34.8625 12.08C34.8625 14.672 34.1505 16.68 32.7265 18.104C31.3185 19.528 29.3505 20.24 26.8225 20.24C25.1585 20.24 23.7185 19.92 22.5025 19.28C21.3025 18.64 20.3745 17.712 19.7185 16.496C19.0785 15.28 18.7585 13.808 18.7585 12.08C18.7585 10.352 19.0785 8.88 19.7185 7.664C20.3745 6.448 21.3025 5.52 22.5025 4.88C23.7185 4.24 25.1585 3.92 26.8225 3.92ZM26.8225 8.12C26.0065 8.12 25.4065 8.44 25.0225 9.08C24.6545 9.704 24.4705 10.704 24.4705 12.08C24.4705 13.456 24.6545 14.464 25.0225 15.104C25.4065 15.728 26.0065 16.04 26.8225 16.04C27.6385 16.04 28.2305 15.728 28.5985 15.104C28.9665 14.464 29.1505 13.456 29.1505 12.08C29.1505 10.704 28.9665 9.704 28.5985 9.08C28.2305 8.44 27.6385 8.12 26.8225 8.12ZM43.4189 20.24C42.0589 20.24 40.8349 19.944 39.7469 19.352C38.6589 18.744 37.8029 17.84 37.1789 16.64C36.5549 15.424 36.2429 13.92 36.2429 12.128C36.2429 9.536 36.9629 7.52 38.4029 6.08C39.8589 4.64 41.8749 3.92 44.4509 3.92C46.4029 3.92 47.9629 4.264 49.1309 4.952C50.3149 5.64 51.2189 6.744 51.8429 8.264L46.6349 10.136C46.5229 9.384 46.2749 8.864 45.8909 8.576C45.5229 8.272 45.0589 8.12 44.4989 8.12C43.5869 8.12 42.9309 8.448 42.5309 9.104C42.1469 9.744 41.9549 10.736 41.9549 12.08C41.9549 13.584 42.1949 14.648 42.6749 15.272C43.1549 15.88 43.9069 16.184 44.9309 16.184C45.5709 16.184 46.0909 16.048 46.4909 15.776C46.9069 15.504 47.1149 15.088 47.1149 14.528V14.504H44.4509V11.072H51.7949V20H48.0989L47.9069 18.152C47.0269 19.544 45.5309 20.24 43.4189 20.24Z" fill="#F9F9F9"/>
<path d="M70.16 4.16L71.1074 4.4801L71.5534 3.16H70.16V4.16ZM64.808 20V21H65.5257L65.7554 20.3201L64.808 20ZM58.16 20L57.2126 20.3201L57.4423 21H58.16V20ZM52.808 4.16V3.16H51.4146L51.8606 4.4801L52.808 4.16ZM58.64 4.16L59.6097 3.91557L59.4192 3.16H58.64V4.16ZM60.824 12.824L61.7946 12.5832L61.7937 12.5796L60.824 12.824ZM61.592 15.92L60.6214 16.1608L62.5652 16.1499L61.592 15.92ZM62.312 12.872L61.3433 12.6238L61.341 12.6329L61.3388 12.6421L62.312 12.872ZM64.544 4.16V3.16H63.7679L63.5753 3.91182L64.544 4.16ZM69.2126 3.8399L63.8606 19.6799L65.7554 20.3201L71.1074 4.4801L69.2126 3.8399ZM64.808 19H58.16V21H64.808V19ZM59.1074 19.6799L53.7554 3.8399L51.8606 4.4801L57.2126 20.3201L59.1074 19.6799ZM52.808 5.16H58.64V3.16H52.808V5.16ZM57.6703 4.40443L59.8543 13.0684L61.7937 12.5796L59.6097 3.91557L57.6703 4.40443ZM59.8534 13.0648L60.6214 16.1608L62.5626 15.6792L61.7946 12.5832L59.8534 13.0648ZM62.5652 16.1499L63.2852 13.1019L61.3388 12.6421L60.6188 15.6901L62.5652 16.1499ZM63.2807 13.1202L65.5127 4.40818L63.5753 3.91182L61.3433 12.6238L63.2807 13.1202ZM64.544 5.16H70.16V3.16H64.544V5.16ZM86.1688 4.16H87.1688V3.16H86.1688V4.16ZM70.8568 4.16V3.16H69.8568V4.16H70.8568ZM76.4728 4.16H77.4728V3.16H76.4728V4.16ZM80.5768 4.16V3.16H79.5768V4.16H80.5768ZM85.1688 4.16V13.184H87.1688V4.16H85.1688ZM85.1688 13.184C85.1688 15.3599 84.5823 16.8142 83.577 17.7407C82.5564 18.6814 80.9299 19.24 78.5128 19.24V21.24C81.1996 21.24 83.4011 20.6226 84.9325 19.2113C86.4792 17.7858 87.1688 15.7121 87.1688 13.184H85.1688ZM78.5128 19.24C76.0956 19.24 74.4691 18.6814 73.4485 17.7407C72.4432 16.8142 71.8568 15.3599 71.8568 13.184H69.8568C69.8568 15.7121 70.5463 17.7858 72.093 19.2113C73.6244 20.6226 75.8259 21.24 78.5128 21.24V19.24ZM71.8568 13.184V4.16H69.8568V13.184H71.8568ZM70.8568 5.16H76.4728V3.16H70.8568V5.16ZM75.4728 4.16V13.616H77.4728V4.16H75.4728ZM75.4728 13.616C75.4728 14.5401 75.6636 15.4195 76.2176 16.0779C76.7995 16.7693 77.629 17.04 78.5128 17.04V15.04C78.0365 15.04 77.846 14.9067 77.7479 14.7901C77.6219 14.6405 77.4728 14.3079 77.4728 13.616H75.4728ZM78.5128 17.04C79.4007 17.04 80.2351 16.7717 80.8221 16.0823C81.383 15.4237 81.5768 14.5424 81.5768 13.616H79.5768C79.5768 14.3056 79.4265 14.6363 79.2994 14.7857C79.1984 14.9043 79.0008 15.04 78.5128 15.04V17.04ZM81.5768 13.616V4.16H79.5768V13.616H81.5768ZM80.5768 5.16H86.1688V3.16H80.5768V5.16ZM88.2547 20H87.2547V21H88.2547V20ZM88.2547 4.16V3.16H87.2547V4.16H88.2547ZM101.407 4.16H102.407V3.16H101.407V4.16ZM101.407 8.264V9.264H102.407V8.264H101.407ZM93.8467 8.264V7.264H92.8467V8.264H93.8467ZM93.8467 10.232H92.8467V11.232H93.8467V10.232ZM99.9427 10.232H100.943V9.232H99.9427V10.232ZM99.9427 14.024V15.024H100.943V14.024H99.9427ZM93.8467 14.024V13.024H92.8467V14.024H93.8467ZM93.8467 15.896H92.8467V16.896H93.8467V15.896ZM101.695 15.896H102.695V14.896H101.695V15.896ZM101.695 20V21H102.695V20H101.695ZM89.2547 20V4.16H87.2547V20H89.2547ZM88.2547 5.16H101.407V3.16H88.2547V5.16ZM100.407 4.16V8.264H102.407V4.16H100.407ZM101.407 7.264H93.8467V9.264H101.407V7.264ZM92.8467 8.264V10.232H94.8467V8.264H92.8467ZM93.8467 11.232H99.9427V9.232H93.8467V11.232ZM98.9427 10.232V14.024H100.943V10.232H98.9427ZM99.9427 13.024H93.8467V15.024H99.9427V13.024ZM92.8467 14.024V15.896H94.8467V14.024H92.8467ZM93.8467 16.896H101.695V14.896H93.8467V16.896ZM100.695 15.896V20H102.695V15.896H100.695ZM101.695 19H88.2547V21H101.695V19Z" fill="#F9F9F9"/>
<path d="M2.51186 35.1H7.04786V36H1.55186V28.08H2.51186V35.1ZM11.6345 27.96C12.3865 27.96 13.0345 28.128 13.5785 28.464C14.1305 28.792 14.5545 29.26 14.8505 29.868C15.1545 30.476 15.3065 31.2 15.3065 32.04C15.3065 32.88 15.1545 33.604 14.8505 34.212C14.5545 34.82 14.1305 35.292 13.5785 35.628C13.0345 35.956 12.3865 36.12 11.6345 36.12C10.8825 36.12 10.2305 35.956 9.67848 35.628C9.13448 35.292 8.71048 34.82 8.40648 34.212C8.11048 33.604 7.96248 32.88 7.96248 32.04C7.96248 31.2 8.11048 30.476 8.40648 29.868C8.71048 29.26 9.13448 28.792 9.67848 28.464C10.2305 28.128 10.8825 27.96 11.6345 27.96ZM11.6345 28.86C10.8105 28.86 10.1585 29.14 9.67848 29.7C9.20648 30.26 8.97048 31.04 8.97048 32.04C8.97048 33.032 9.20648 33.812 9.67848 34.38C10.1585 34.94 10.8105 35.22 11.6345 35.22C12.4585 35.22 13.1065 34.94 13.5785 34.38C14.0585 33.812 14.2985 33.032 14.2985 32.04C14.2985 31.04 14.0585 30.26 13.5785 29.7C13.1065 29.14 12.4585 28.86 11.6345 28.86ZM23.803 33.972C23.555 34.652 23.147 35.18 22.579 35.556C22.011 35.932 21.355 36.12 20.611 36.12C19.859 36.12 19.207 35.956 18.655 35.628C18.111 35.292 17.687 34.82 17.383 34.212C17.087 33.604 16.939 32.88 16.939 32.04C16.939 31.2 17.087 30.476 17.383 29.868C17.687 29.26 18.111 28.792 18.655 28.464C19.207 28.128 19.851 27.96 20.587 27.96C21.355 27.96 21.995 28.12 22.507 28.44C23.027 28.752 23.411 29.208 23.659 29.808L22.711 30.252C22.535 29.796 22.279 29.452 21.943 29.22C21.615 28.98 21.187 28.86 20.659 28.86C20.123 28.86 19.651 28.988 19.243 29.244C18.835 29.492 18.515 29.852 18.283 30.324C18.059 30.796 17.947 31.368 17.947 32.04C17.947 33.032 18.183 33.812 18.655 34.38C19.135 34.94 19.787 35.22 20.611 35.22C21.139 35.22 21.599 35.088 21.991 34.824C22.383 34.552 22.667 34.148 22.843 33.612L23.803 33.972ZM24.6616 36L27.7456 28.08H28.8856L31.9576 36H30.9376L30.0976 33.804H26.5096L25.6696 36H24.6616ZM27.9376 30.06L26.8576 32.904H29.7496L28.6816 30.096L28.3096 28.992H28.2856L27.9376 30.06ZM34.5275 35.1H39.0635V36H33.5675V28.08H34.5275V35.1ZM43.0366 36L46.1206 28.08H47.2606L50.3326 36H49.3126L48.4726 33.804H44.8846L44.0446 36H43.0366ZM46.3126 30.06L45.2326 32.904H48.1246L47.0566 30.096L46.6846 28.992H46.6606L46.3126 30.06ZM58.1585 28.08V36H56.9705L53.6585 30.696L52.8185 29.208H52.8065L52.8545 30.408V36H51.9425V28.08H53.1305L56.4305 33.36L57.2825 34.884H57.2945L57.2465 33.672V28.08H58.1585ZM59.771 36L62.855 28.08H63.995L67.067 36H66.047L65.207 33.804H61.619L60.779 36H59.771ZM63.047 30.06L61.967 32.904H64.859L63.791 30.096L63.419 28.992H63.395L63.047 30.06ZM69.6369 35.1H74.1729V36H68.6769V28.08H69.6369V35.1ZM79.9139 28.08L77.0819 32.904V36H76.1219V32.904L73.2899 28.08H74.4299L75.9659 30.792L76.6019 31.92L77.2379 30.792L78.7739 28.08H79.9139ZM86.9011 28.08V28.98H84.1411V36H83.1811V28.98H80.4211V28.08H86.9011ZM89.5353 28.08V36H88.5753V28.08H89.5353ZM98.5101 33.972C98.2621 34.652 97.8541 35.18 97.2861 35.556C96.7181 35.932 96.0621 36.12 95.3181 36.12C94.5661 36.12 93.9141 35.956 93.3621 35.628C92.8181 35.292 92.3941 34.82 92.0901 34.212C91.7941 33.604 91.6461 32.88 91.6461 32.04C91.6461 31.2 91.7941 30.476 92.0901 29.868C92.3941 29.26 92.8181 28.792 93.3621 28.464C93.9141 28.128 94.5581 27.96 95.2941 27.96C96.0621 27.96 96.7021 28.12 97.2141 28.44C97.7341 28.752 98.1181 29.208 98.3661 29.808L97.4181 30.252C97.2421 29.796 96.9861 29.452 96.6501 29.22C96.3221 28.98 95.8941 28.86 95.3661 28.86C94.8301 28.86 94.3581 28.988 93.9501 29.244C93.5421 29.492 93.2221 29.852 92.9901 30.324C92.7661 30.796 92.6541 31.368 92.6541 32.04C92.6541 33.032 92.8901 33.812 93.3621 34.38C93.8421 34.94 94.4941 35.22 95.3181 35.22C95.8461 35.22 96.3061 35.088 96.6981 34.824C97.0901 34.552 97.3741 34.148 97.5501 33.612L98.5101 33.972ZM102.897 27.96C103.593 27.96 104.193 28.104 104.697 28.392C105.201 28.672 105.621 29.088 105.957 29.64L105.153 30.264C104.857 29.752 104.521 29.392 104.145 29.184C103.777 28.968 103.329 28.86 102.801 28.86C102.161 28.86 101.693 28.988 101.397 29.244C101.101 29.5 100.953 29.812 100.953 30.18C100.953 30.46 101.041 30.708 101.217 30.924C101.393 31.132 101.745 31.296 102.273 31.416L103.989 31.8C104.749 31.968 105.277 32.224 105.573 32.568C105.877 32.904 106.029 33.324 106.029 33.828C106.029 34.276 105.901 34.676 105.645 35.028C105.397 35.372 105.045 35.64 104.589 35.832C104.133 36.024 103.597 36.12 102.981 36.12C102.125 36.12 101.417 35.952 100.857 35.616C100.297 35.272 99.8686 34.856 99.5726 34.368L100.413 33.684C100.645 34.14 100.973 34.512 101.397 34.8C101.829 35.08 102.377 35.22 103.041 35.22C103.657 35.22 104.141 35.108 104.493 34.884C104.853 34.66 105.033 34.336 105.033 33.912C105.033 33.656 104.949 33.428 104.781 33.228C104.613 33.02 104.297 32.864 103.833 32.76L101.973 32.34C101.237 32.18 100.713 31.92 100.401 31.56C100.097 31.2 99.9446 30.784 99.9446 30.312C99.9446 29.888 100.061 29.5 100.293 29.148C100.533 28.788 100.873 28.5 101.313 28.284C101.761 28.068 102.289 27.96 102.897 27.96Z" fill="#F9F9F9"/>
</svg>
