<svg width="107" height="38" viewBox="0 0 107 38" fill="none" xmlns="http://www.w3.org/2000/svg">
<path d="M8.792 15.896H15.968V20H3.2V4.16H8.792V15.896ZM24.8225 3.92C27.3505 3.92 29.3185 4.632 30.7265 6.056C32.1505 7.48 32.8625 9.488 32.8625 12.08C32.8625 14.672 32.1505 16.68 30.7265 18.104C29.3185 19.528 27.3505 20.24 24.8225 20.24C23.1585 20.24 21.7185 19.92 20.5025 19.28C19.3025 18.64 18.3745 17.712 17.7185 16.496C17.0785 15.28 16.7585 13.808 16.7585 12.08C16.7585 10.352 17.0785 8.88 17.7185 7.664C18.3745 6.448 19.3025 5.52 20.5025 4.88C21.7185 4.24 23.1585 3.92 24.8225 3.92ZM24.8225 8.12C24.0065 8.12 23.4065 8.44 23.0225 9.08C22.6545 9.704 22.4705 10.704 22.4705 12.08C22.4705 13.456 22.6545 14.464 23.0225 15.104C23.4065 15.728 24.0065 16.04 24.8225 16.04C25.6385 16.04 26.2305 15.728 26.5985 15.104C26.9665 14.464 27.1505 13.456 27.1505 12.08C27.1505 10.704 26.9665 9.704 26.5985 9.08C26.2305 8.44 25.6385 8.12 24.8225 8.12ZM41.4189 20.24C40.0589 20.24 38.8349 19.944 37.7469 19.352C36.6589 18.744 35.8029 17.84 35.1789 16.64C34.5549 15.424 34.2429 13.92 34.2429 12.128C34.2429 9.536 34.9629 7.52 36.4029 6.08C37.8589 4.64 39.8749 3.92 42.4509 3.92C44.4029 3.92 45.9629 4.264 47.1309 4.952C48.3149 5.64 49.2189 6.744 49.8429 8.264L44.6349 10.136C44.5229 9.384 44.2749 8.864 43.8909 8.576C43.5229 8.272 43.0589 8.12 42.4989 8.12C41.5869 8.12 40.9309 8.448 40.5309 9.104C40.1469 9.744 39.9549 10.736 39.9549 12.08C39.9549 13.584 40.1949 14.648 40.6749 15.272C41.1549 15.88 41.9069 16.184 42.9309 16.184C43.5709 16.184 44.0909 16.048 44.4909 15.776C44.9069 15.504 45.1149 15.088 45.1149 14.528V14.504H42.4509V11.072H49.7949V20H46.0989L45.9069 18.152C45.0269 19.544 43.5309 20.24 41.4189 20.24Z" fill="#324552"/>
<path d="M68.16 4.16L68.8232 4.38407L69.1354 3.46H68.16V4.16ZM62.808 20V20.7H63.3104L63.4712 20.2241L62.808 20ZM56.16 20L55.4968 20.2241L55.6576 20.7H56.16V20ZM50.808 4.16V3.46H49.8326L50.1448 4.38407L50.808 4.16ZM56.64 4.16L57.3188 3.9889L57.1854 3.46H56.64V4.16ZM58.824 12.824L59.5034 12.6555L59.5028 12.6529L58.824 12.824ZM59.592 15.92L58.9126 16.0885L60.2733 16.0809L59.592 15.92ZM60.312 12.872L59.6338 12.6982L59.6307 12.7111L60.312 12.872ZM62.544 4.16V3.46H62.0007L61.8659 3.98627L62.544 4.16ZM67.4968 3.93593L62.1448 19.7759L63.4712 20.2241L68.8232 4.38407L67.4968 3.93593ZM62.808 19.3H56.16V20.7H62.808V19.3ZM56.8232 19.7759L51.4712 3.93593L50.1448 4.38407L55.4968 20.2241L56.8232 19.7759ZM50.808 4.86H56.64V3.46H50.808V4.86ZM55.9612 4.3311L58.1452 12.9951L59.5028 12.6529L57.3188 3.9889L55.9612 4.3311ZM58.1446 12.9925L58.9126 16.0885L60.2714 15.7515L59.5034 12.6555L58.1446 12.9925ZM60.2733 16.0809L60.9933 13.0329L59.6307 12.7111L58.9107 15.7591L60.2733 16.0809ZM60.9901 13.0457L63.2221 4.33373L61.8659 3.98627L59.6339 12.6983L60.9901 13.0457ZM62.544 4.86H68.16V3.46H62.544V4.86ZM86.5687 4.16H87.2687V3.46H86.5687V4.16ZM71.2568 4.16V3.46H70.5567V4.16H71.2568ZM76.8727 4.16H77.5728V3.46H76.8727V4.16ZM80.9767 4.16V3.46H80.2768V4.16H80.9767ZM85.8688 4.16V13.184H87.2687V4.16H85.8688ZM85.8688 13.184C85.8688 15.4128 85.2668 16.9599 84.1804 17.9613C83.0831 18.9725 81.3704 19.54 78.9128 19.54V20.94C81.5591 20.94 83.6744 20.3315 85.1291 18.9907C86.5947 17.6401 87.2687 15.6592 87.2687 13.184H85.8688ZM78.9128 19.54C76.4551 19.54 74.7424 18.9725 73.6451 17.9613C72.5587 16.9599 71.9567 15.4128 71.9567 13.184H70.5567C70.5567 15.6592 71.2308 17.6401 72.6964 18.9907C74.1511 20.3315 76.2664 20.94 78.9128 20.94V19.54ZM71.9567 13.184V4.16H70.5567V13.184H71.9567ZM71.2568 4.86H76.8727V3.46H71.2568V4.86ZM76.1728 4.16V13.616H77.5728V4.16H76.1728ZM76.1728 13.616C76.1728 14.5053 76.3573 15.3027 76.8472 15.8847C77.3565 16.4899 78.0901 16.74 78.9128 16.74V15.34C78.3754 15.34 78.089 15.1861 77.9183 14.9833C77.7282 14.7573 77.5728 14.3427 77.5728 13.616H76.1728ZM78.9128 16.74C79.7407 16.74 80.4796 16.4916 80.9937 15.8878C81.4895 15.3056 81.6768 14.5069 81.6768 13.616H80.2768C80.2768 14.3411 80.12 14.7544 79.9278 14.9802C79.7539 15.1844 79.4608 15.34 78.9128 15.34V16.74ZM81.6768 13.616V4.16H80.2768V13.616H81.6768ZM80.9767 4.86H86.5687V3.46H80.9767V4.86ZM91.0547 20H90.3547V20.7H91.0547V20ZM91.0547 4.16V3.46H90.3547V4.16H91.0547ZM104.207 4.16H104.907V3.46H104.207V4.16ZM104.207 8.264V8.964H104.907V8.264H104.207ZM96.6467 8.264V7.564H95.9467V8.264H96.6467ZM96.6467 10.232H95.9467V10.932H96.6467V10.232ZM102.743 10.232H103.443V9.532H102.743V10.232ZM102.743 14.024V14.724H103.443V14.024H102.743ZM96.6467 14.024V13.324H95.9467V14.024H96.6467ZM96.6467 15.896H95.9467V16.596H96.6467V15.896ZM104.495 15.896H105.195V15.196H104.495V15.896ZM104.495 20V20.7H105.195V20H104.495ZM91.7547 20V4.16H90.3547V20H91.7547ZM91.0547 4.86H104.207V3.46H91.0547V4.86ZM103.507 4.16V8.264H104.907V4.16H103.507ZM104.207 7.564H96.6467V8.964H104.207V7.564ZM95.9467 8.264V10.232H97.3467V8.264H95.9467ZM96.6467 10.932H102.743V9.532H96.6467V10.932ZM102.043 10.232V14.024H103.443V10.232H102.043ZM102.743 13.324H96.6467V14.724H102.743V13.324ZM95.9467 14.024V15.896H97.3467V14.024H95.9467ZM96.6467 16.596H104.495V15.196H96.6467V16.596ZM103.795 15.896V20H105.195V15.896H103.795ZM104.495 19.3H91.0547V20.7H104.495V19.3Z" fill="#324552"/>
<path d="M2.51186 35.1H7.04786V36H1.55186V28.08H2.51186V35.1ZM11.6345 27.96C12.3865 27.96 13.0345 28.128 13.5785 28.464C14.1305 28.792 14.5545 29.26 14.8505 29.868C15.1545 30.476 15.3065 31.2 15.3065 32.04C15.3065 32.88 15.1545 33.604 14.8505 34.212C14.5545 34.82 14.1305 35.292 13.5785 35.628C13.0345 35.956 12.3865 36.12 11.6345 36.12C10.8825 36.12 10.2305 35.956 9.67848 35.628C9.13448 35.292 8.71048 34.82 8.40648 34.212C8.11048 33.604 7.96248 32.88 7.96248 32.04C7.96248 31.2 8.11048 30.476 8.40648 29.868C8.71048 29.26 9.13448 28.792 9.67848 28.464C10.2305 28.128 10.8825 27.96 11.6345 27.96ZM11.6345 28.86C10.8105 28.86 10.1585 29.14 9.67848 29.7C9.20648 30.26 8.97048 31.04 8.97048 32.04C8.97048 33.032 9.20648 33.812 9.67848 34.38C10.1585 34.94 10.8105 35.22 11.6345 35.22C12.4585 35.22 13.1065 34.94 13.5785 34.38C14.0585 33.812 14.2985 33.032 14.2985 32.04C14.2985 31.04 14.0585 30.26 13.5785 29.7C13.1065 29.14 12.4585 28.86 11.6345 28.86ZM23.803 33.972C23.555 34.652 23.147 35.18 22.579 35.556C22.011 35.932 21.355 36.12 20.611 36.12C19.859 36.12 19.207 35.956 18.655 35.628C18.111 35.292 17.687 34.82 17.383 34.212C17.087 33.604 16.939 32.88 16.939 32.04C16.939 31.2 17.087 30.476 17.383 29.868C17.687 29.26 18.111 28.792 18.655 28.464C19.207 28.128 19.851 27.96 20.587 27.96C21.355 27.96 21.995 28.12 22.507 28.44C23.027 28.752 23.411 29.208 23.659 29.808L22.711 30.252C22.535 29.796 22.279 29.452 21.943 29.22C21.615 28.98 21.187 28.86 20.659 28.86C20.123 28.86 19.651 28.988 19.243 29.244C18.835 29.492 18.515 29.852 18.283 30.324C18.059 30.796 17.947 31.368 17.947 32.04C17.947 33.032 18.183 33.812 18.655 34.38C19.135 34.94 19.787 35.22 20.611 35.22C21.139 35.22 21.599 35.088 21.991 34.824C22.383 34.552 22.667 34.148 22.843 33.612L23.803 33.972ZM24.6616 36L27.7456 28.08H28.8856L31.9576 36H30.9376L30.0976 33.804H26.5096L25.6696 36H24.6616ZM27.9376 30.06L26.8576 32.904H29.7496L28.6816 30.096L28.3096 28.992H28.2856L27.9376 30.06ZM34.5275 35.1H39.0635V36H33.5675V28.08H34.5275V35.1ZM43.0366 36L46.1206 28.08H47.2606L50.3326 36H49.3126L48.4726 33.804H44.8846L44.0446 36H43.0366ZM46.3126 30.06L45.2326 32.904H48.1246L47.0566 30.096L46.6846 28.992H46.6606L46.3126 30.06ZM58.1585 28.08V36H56.9705L53.6585 30.696L52.8185 29.208H52.8065L52.8545 30.408V36H51.9425V28.08H53.1305L56.4305 33.36L57.2825 34.884H57.2945L57.2465 33.672V28.08H58.1585ZM59.771 36L62.855 28.08H63.995L67.067 36H66.047L65.207 33.804H61.619L60.779 36H59.771ZM63.047 30.06L61.967 32.904H64.859L63.791 30.096L63.419 28.992H63.395L63.047 30.06ZM69.6369 35.1H74.1729V36H68.6769V28.08H69.6369V35.1ZM79.9139 28.08L77.0819 32.904V36H76.1219V32.904L73.2899 28.08H74.4299L75.9659 30.792L76.6019 31.92L77.2379 30.792L78.7739 28.08H79.9139ZM86.9011 28.08V28.98H84.1411V36H83.1811V28.98H80.4211V28.08H86.9011ZM89.5353 28.08V36H88.5753V28.08H89.5353ZM98.5101 33.972C98.2621 34.652 97.8541 35.18 97.2861 35.556C96.7181 35.932 96.0621 36.12 95.3181 36.12C94.5661 36.12 93.9141 35.956 93.3621 35.628C92.8181 35.292 92.3941 34.82 92.0901 34.212C91.7941 33.604 91.6461 32.88 91.6461 32.04C91.6461 31.2 91.7941 30.476 92.0901 29.868C92.3941 29.26 92.8181 28.792 93.3621 28.464C93.9141 28.128 94.5581 27.96 95.2941 27.96C96.0621 27.96 96.7021 28.12 97.2141 28.44C97.7341 28.752 98.1181 29.208 98.3661 29.808L97.4181 30.252C97.2421 29.796 96.9861 29.452 96.6501 29.22C96.3221 28.98 95.8941 28.86 95.3661 28.86C94.8301 28.86 94.3581 28.988 93.9501 29.244C93.5421 29.492 93.2221 29.852 92.9901 30.324C92.7661 30.796 92.6541 31.368 92.6541 32.04C92.6541 33.032 92.8901 33.812 93.3621 34.38C93.8421 34.94 94.4941 35.22 95.3181 35.22C95.8461 35.22 96.3061 35.088 96.6981 34.824C97.0901 34.552 97.3741 34.148 97.5501 33.612L98.5101 33.972ZM102.897 27.96C103.593 27.96 104.193 28.104 104.697 28.392C105.201 28.672 105.621 29.088 105.957 29.64L105.153 30.264C104.857 29.752 104.521 29.392 104.145 29.184C103.777 28.968 103.329 28.86 102.801 28.86C102.161 28.86 101.693 28.988 101.397 29.244C101.101 29.5 100.953 29.812 100.953 30.18C100.953 30.46 101.041 30.708 101.217 30.924C101.393 31.132 101.745 31.296 102.273 31.416L103.989 31.8C104.749 31.968 105.277 32.224 105.573 32.568C105.877 32.904 106.029 33.324 106.029 33.828C106.029 34.276 105.901 34.676 105.645 35.028C105.397 35.372 105.045 35.64 104.589 35.832C104.133 36.024 103.597 36.12 102.981 36.12C102.125 36.12 101.417 35.952 100.857 35.616C100.297 35.272 99.8686 34.856 99.5726 34.368L100.413 33.684C100.645 34.14 100.973 34.512 101.397 34.8C101.829 35.08 102.377 35.22 103.041 35.22C103.657 35.22 104.141 35.108 104.493 34.884C104.853 34.66 105.033 34.336 105.033 33.912C105.033 33.656 104.949 33.428 104.781 33.228C104.613 33.02 104.297 32.864 103.833 32.76L101.973 32.34C101.237 32.18 100.713 31.92 100.401 31.56C100.097 31.2 99.9446 30.784 99.9446 30.312C99.9446 29.888 100.061 29.5 100.293 29.148C100.533 28.788 100.873 28.5 101.313 28.284C101.761 28.068 102.289 27.96 102.897 27.96Z" fill="#324552"/>
</svg>
