<svg width="1440" height="717" viewBox="0 0 1440 717" fill="none" xmlns="http://www.w3.org/2000/svg">
<g clip-path="url(#clip0_11348_9411)">
<path d="M216.849 692.727H1215.52" stroke="#DEE6F6" stroke-width="2.3655" stroke-linecap="square"/>
<path d="M327.604 514.328C328.664 515.388 329.917 516.139 331.25 516.579L320.227 552.511C320.079 552.994 320.35 553.505 320.832 553.653C321.315 553.801 321.826 553.53 321.974 553.047L333.039 516.98C335.78 517.316 338.642 516.432 340.746 514.328C344.375 510.699 344.375 504.815 340.746 501.185C337.117 497.556 331.233 497.556 327.604 501.185C323.975 504.815 323.975 510.699 327.604 514.328Z" fill="#597EF7"/>
<path d="M406.241 553.346C406.959 553.524 407.71 553.619 408.484 553.619C413.616 553.619 417.777 549.458 417.777 544.326C417.777 539.193 413.616 535.033 408.484 535.033C403.351 535.033 399.191 539.193 399.191 544.326C399.191 548.04 401.37 551.245 404.519 552.733L394.877 579.433C394.705 579.908 394.951 580.432 395.426 580.603C395.901 580.775 396.425 580.529 396.596 580.054L406.241 553.346Z" fill="#597EF7"/>
<path d="M395.351 547.354C395.472 547.845 395.173 548.34 394.682 548.461L328.293 564.819C329.078 567.893 328.267 571.291 325.861 573.697C322.232 577.326 316.348 577.326 312.719 573.697C309.09 570.068 309.09 564.184 312.719 560.555C316.348 556.926 322.232 556.926 325.861 560.555C326.621 561.315 327.222 562.175 327.664 563.091L394.245 546.686C394.735 546.565 395.23 546.864 395.351 547.354Z" fill="#597EF7"/>
<path d="M398.484 598.574C394.855 602.203 388.971 602.203 385.342 598.574C381.713 594.945 381.713 589.061 385.342 585.432C388.971 581.802 394.855 581.802 398.484 585.432C402.114 589.061 402.114 594.945 398.484 598.574Z" fill="#597EF7"/>
<path fill-rule="evenodd" clip-rule="evenodd" d="M473.99 256.031L453.647 319.939H465.946L486.29 256.031H473.99Z" fill="#597EF7"/>
<path fill-rule="evenodd" clip-rule="evenodd" d="M444.981 263.297H431.924H423.694C423.052 263.297 422.531 263.817 422.531 264.459V272.69V303.28V311.511C422.531 312.153 423.052 312.673 423.694 312.673H431.924H444.981C445.623 312.673 446.144 312.153 446.144 311.511V304.443C446.144 303.801 445.623 303.28 444.981 303.28H431.924V272.69H444.981C445.623 272.69 446.144 272.17 446.144 271.528V264.459C446.144 263.817 445.623 263.297 444.981 263.297Z" fill="#CCD7EE"/>
<path fill-rule="evenodd" clip-rule="evenodd" d="M516.243 263.297H508.012H494.955C494.313 263.297 493.793 263.817 493.793 264.459V271.528C493.793 272.17 494.313 272.69 494.955 272.69H508.012V303.28H494.955C494.313 303.28 493.793 303.801 493.793 304.443V311.511C493.793 312.153 494.313 312.673 494.955 312.673H508.012H516.243C516.885 312.673 517.405 312.153 517.405 311.511V304.443V271.528V264.459C517.405 263.817 516.885 263.297 516.243 263.297Z" fill="#CCD7EE"/>
<path fill-rule="evenodd" clip-rule="evenodd" d="M1048.53 171.435H830.617V156.407C830.617 153.147 833.271 150.504 836.544 150.504H1042.6C1045.87 150.504 1048.53 153.147 1048.53 156.407V171.435Z" fill="#253368"/>
<path fill-rule="evenodd" clip-rule="evenodd" d="M845.897 160.331C845.897 162.377 844.242 164.036 842.201 164.036C840.159 164.036 838.504 162.377 838.504 160.331C838.504 158.285 840.159 156.626 842.201 156.626C844.242 156.626 845.897 158.285 845.897 160.331Z" fill="#FF7946"/>
<path fill-rule="evenodd" clip-rule="evenodd" d="M859.699 160.331C859.699 162.377 858.044 164.036 856.003 164.036C853.961 164.036 852.306 162.377 852.306 160.331C852.306 158.285 853.961 156.626 856.003 156.626C858.044 156.626 859.699 158.285 859.699 160.331Z" fill="#FAAD14"/>
<path fill-rule="evenodd" clip-rule="evenodd" d="M873.501 160.331C873.501 162.377 871.846 164.036 869.805 164.036C867.763 164.036 866.108 162.377 866.108 160.331C866.108 158.285 867.763 156.626 869.805 156.626C871.846 156.626 873.501 158.285 873.501 160.331Z" fill="#7CB305"/>
<path fill-rule="evenodd" clip-rule="evenodd" d="M836.999 316.306C833.354 316.306 830.398 313.667 830.398 310.411V170.047H1048.32V310.411C1048.32 313.667 1045.37 316.306 1041.72 316.306H836.999Z" fill="#E4EBF7"/>
<path d="M1031.29 180.811H846.727C845.275 180.811 844.097 181.988 844.097 183.441V301.47C844.097 302.923 845.275 304.1 846.727 304.1H1031.29C1032.75 304.1 1033.92 302.923 1033.92 301.47V183.441C1033.92 181.988 1032.75 180.811 1031.29 180.811Z" fill="white"/>
<path d="M935.097 198.424H866.603C863.901 198.424 861.71 200.614 861.71 203.316C861.71 206.018 863.901 208.208 866.603 208.208H935.097C937.799 208.208 939.989 206.018 939.989 203.316C939.989 200.614 937.799 198.424 935.097 198.424Z" fill="#FF7946"/>
<path d="M993.806 257.133H866.603C863.901 257.133 861.71 259.323 861.71 262.025C861.71 264.727 863.901 266.918 866.603 266.918H993.806C996.508 266.918 998.699 264.727 998.699 262.025C998.699 259.323 996.508 257.133 993.806 257.133Z" fill="#ADC6FF"/>
<path d="M974.236 276.703H866.603C863.901 276.703 861.71 278.893 861.71 281.595C861.71 284.297 863.901 286.488 866.603 286.488H974.236C976.938 286.488 979.129 284.297 979.129 281.595C979.129 278.893 976.938 276.703 974.236 276.703Z" fill="#7CB305"/>
<path d="M954.667 237.563H866.603C863.901 237.563 861.71 239.753 861.71 242.455C861.71 245.157 863.901 247.348 866.603 247.348H954.667C957.369 247.348 959.559 245.157 959.559 242.455C959.559 239.753 957.369 237.563 954.667 237.563Z" fill="#FAAD14"/>
<path d="M1013.38 217.993H866.603C863.901 217.993 861.71 220.184 861.71 222.886C861.71 225.588 863.901 227.778 866.603 227.778H1013.38C1016.08 227.778 1018.27 225.588 1018.27 222.886C1018.27 220.184 1016.08 217.993 1013.38 217.993Z" fill="#597EF7"/>
<path d="M1078.03 244.957H1006.13C1003.75 244.957 1001.82 246.884 1001.82 249.26V388.932C1001.82 391.309 1003.75 393.236 1006.13 393.236H1078.03C1080.4 393.236 1082.33 391.309 1082.33 388.932V249.26C1082.33 246.884 1080.4 244.957 1078.03 244.957Z" fill="#253368"/>
<path d="M1007.54 255.536H1076.44C1077.41 255.536 1078.2 256.327 1078.2 257.304V380.889C1078.2 381.866 1077.41 382.657 1076.44 382.657H1007.54C1006.56 382.657 1005.77 381.866 1005.77 380.889V257.304C1005.77 256.327 1006.56 255.536 1007.54 255.536Z" fill="white"/>
<path d="M1007.01 255.356H1076.98C1077.65 255.356 1078.2 255.904 1078.2 256.58V261.094H1005.77V256.58C1005.77 256.254 1005.9 255.941 1006.13 255.711C1006.37 255.481 1006.68 255.353 1007.01 255.356Z" fill="#597EF7"/>
<path d="M1033.56 251.591C1034.15 251.591 1034.64 251.109 1034.64 250.515C1034.64 249.921 1034.15 249.439 1033.56 249.439C1032.97 249.439 1032.48 249.921 1032.48 250.515C1032.48 251.109 1032.97 251.591 1033.56 251.591Z" fill="white"/>
<path d="M1078.2 260.556H1005.77V320.082H1078.2V260.556Z" fill="#E4EBF7"/>
<path d="M1048.32 249.619H1037.98C1037.52 249.619 1037.15 249.992 1037.15 250.452V250.757C1037.15 251.218 1037.52 251.591 1037.98 251.591H1048.32C1048.79 251.591 1049.16 251.218 1049.16 250.757V250.452C1049.16 249.992 1048.79 249.619 1048.32 249.619Z" fill="white"/>
<path d="M1054.45 303.587C1063.9 303.587 1071.57 295.881 1071.57 286.375C1071.57 276.868 1063.9 269.162 1054.45 269.162C1044.99 269.162 1037.32 276.868 1037.32 286.375C1037.32 295.881 1044.99 303.587 1054.45 303.587Z" fill="white"/>
<path d="M1005.77 320.262L1020.41 296.384C1020.85 295.681 1021.58 295.224 1022.4 295.151C1023.22 295.078 1024.03 295.398 1024.58 296.013L1034.04 306.644C1034.71 307.394 1035.68 307.793 1036.68 307.727C1037.68 307.661 1038.6 307.136 1039.16 306.305L1052.05 287.266C1052.61 286.432 1053.53 285.907 1054.53 285.843C1055.54 285.779 1056.51 286.184 1057.18 286.939L1078.2 310.831V320.262H1005.77Z" fill="#597EF7"/>
<path d="M1024.06 266.562C1024.3 266.562 1024.51 266.763 1024.51 267.01C1024.51 267.249 1024.32 267.443 1024.09 267.458L1024.06 267.459H1010.61C1010.36 267.459 1010.16 267.258 1010.16 267.01C1010.16 266.772 1010.35 266.578 1010.58 266.563L1010.61 266.562H1024.06Z" fill="#061178"/>
<path d="M1019.22 269.969C1019.46 269.969 1019.66 270.17 1019.66 270.417C1019.66 270.655 1019.48 270.85 1019.24 270.865L1019.22 270.865H1010.61C1010.36 270.865 1010.16 270.665 1010.16 270.417C1010.16 270.179 1010.35 269.985 1010.58 269.97L1010.61 269.969H1019.22Z" fill="#061178"/>
<path d="M1072.65 330.482C1072.89 330.482 1073.09 330.682 1073.09 330.93C1073.09 331.168 1072.91 331.363 1072.67 331.377L1072.65 331.378H1012.4C1012.16 331.378 1011.95 331.177 1011.95 330.93C1011.95 330.692 1012.14 330.497 1012.37 330.483L1012.4 330.482H1072.65Z" fill="#A3B5D6"/>
<path d="M1072.65 337.295C1072.89 337.295 1073.09 337.496 1073.09 337.743C1073.09 337.981 1072.91 338.176 1072.67 338.191L1072.65 338.191H1012.4C1012.16 338.191 1011.95 337.991 1011.95 337.743C1011.95 337.505 1012.14 337.31 1012.37 337.296L1012.4 337.295H1072.65Z" fill="#A3B5D6"/>
<path d="M1071.39 343.75C1071.64 343.75 1071.84 343.95 1071.84 344.198C1071.84 344.436 1071.65 344.63 1071.42 344.645L1071.39 344.646H1012.4C1012.16 344.646 1011.95 344.445 1011.95 344.198C1011.95 343.96 1012.14 343.765 1012.37 343.75L1012.4 343.75H1071.39Z" fill="#A3B5D6"/>
<path d="M1026.39 354.507H1012.76C1011.97 354.507 1011.33 355.15 1011.33 355.942V369.568C1011.33 370.36 1011.97 371.003 1012.76 371.003H1026.39C1027.18 371.003 1027.82 370.36 1027.82 369.568V355.942C1027.82 355.15 1027.18 354.507 1026.39 354.507Z" fill="#FF7946"/>
<path d="M1048.62 354.507H1034.99C1034.2 354.507 1033.56 355.15 1033.56 355.942V369.568C1033.56 370.36 1034.2 371.003 1034.99 371.003H1048.62C1049.41 371.003 1050.06 370.36 1050.06 369.568V355.942C1050.06 355.15 1049.41 354.507 1048.62 354.507Z" fill="#FAAD14"/>
<path d="M1070.85 354.507H1057.23C1056.43 354.507 1055.79 355.15 1055.79 355.942V369.568C1055.79 370.36 1056.43 371.003 1057.23 371.003H1070.85C1071.65 371.003 1072.29 370.36 1072.29 369.568V355.942C1072.29 355.15 1071.65 354.507 1070.85 354.507Z" fill="#597EF7"/>
<path d="M1013.57 333.171C1014.61 333.171 1015.45 332.328 1015.45 331.288C1015.45 330.249 1014.61 329.406 1013.57 329.406C1012.53 329.406 1011.69 330.249 1011.69 331.288C1011.69 332.328 1012.53 333.171 1013.57 333.171Z" fill="#A3B5D6"/>
<path d="M1039.57 339.626C1040.61 339.626 1041.45 338.783 1041.45 337.743C1041.45 336.703 1040.61 335.861 1039.57 335.861C1038.53 335.861 1037.68 336.703 1037.68 337.743C1037.68 338.783 1038.53 339.626 1039.57 339.626Z" fill="#A3B5D6"/>
<path d="M1065.74 345.901C1066.78 345.901 1067.63 345.058 1067.63 344.019C1067.63 342.979 1066.78 342.136 1065.74 342.136C1064.7 342.136 1063.86 342.979 1063.86 344.019C1063.86 345.058 1064.7 345.901 1065.74 345.901Z" fill="#A3B5D6"/>
<path fill-rule="evenodd" clip-rule="evenodd" d="M765.572 288.91C765.572 288.91 797.999 284.177 806.603 318.45C838.04 329.848 829.499 364.139 829.499 364.139C829.499 364.139 845.31 391.053 813.969 404.879C811.487 432.474 780.127 427.486 780.127 427.486C780.127 427.486 772.621 448.815 748.783 440.059C723.09 460.082 674.63 456.112 657.403 431.68C623.314 457.18 563.919 426.151 571.345 402.895C531.5 400.52 512.146 358.279 535.455 322.362C517.498 293.985 537.924 277.209 537.924 277.209C537.924 277.209 532.22 211.995 577.362 203.174C600.533 168.034 650.728 196.207 650.728 196.207C650.728 196.207 683.958 189.278 695.899 218.113C733.041 223.793 731.319 244.211 734.194 261.348C767.429 263.199 765.572 288.91 765.572 288.91Z" fill="#253368"/>
<path fill-rule="evenodd" clip-rule="evenodd" d="M662.489 257.161C636.454 261.757 628.521 242.059 628.521 242.059C628.521 242.059 617.749 214.321 615.015 231.358C613.56 240.413 599.55 228.414 593.122 238.07C588.8 244.574 599.634 252.931 585.575 270.265C577.435 280.306 609.602 288.284 589.778 306.797C589.778 306.797 603.909 329.36 579.682 336.744L577.139 363.218C575.657 378.624 587.793 391.945 603.268 391.908L603.271 391.908C618.029 391.871 629.841 379.652 629.38 364.901L628.369 332.627C665.995 332.592 667.783 280.876 662.489 257.161Z" fill="#FFC999"/>
<path d="M614.512 284.735C615.163 284.082 616.221 284.081 616.874 284.732L617.067 284.912C617.152 284.989 617.259 285.082 617.386 285.189L617.593 285.36C618.229 285.878 618.98 286.415 619.837 286.941C623.685 289.297 628.196 290.581 633.231 290.089C634.15 289.999 634.967 290.671 635.057 291.589C635.146 292.508 634.475 293.325 633.556 293.414C627.729 293.984 622.517 292.501 618.092 289.79C616.388 288.746 615.181 287.763 614.514 287.098C613.861 286.446 613.86 285.388 614.512 284.735Z" fill="#F5222D"/>
<path d="M635.022 258.755C635.611 258.796 636.069 259.26 636.122 259.829L636.122 260.36C636.127 260.517 636.139 260.719 636.16 260.965C636.237 261.823 636.415 262.835 636.725 263.99C637.626 267.348 639.417 271.16 642.346 275.349C642.735 275.905 642.579 276.673 642.004 277.035L640.278 278.109C638.043 279.486 636.072 280.643 634.36 281.596L633.73 281.945C633.092 282.294 632.529 282.593 632.041 282.845L630.991 283.368C630.395 283.643 629.69 283.384 629.414 282.789C629.139 282.193 629.398 281.487 629.994 281.212L630.616 280.906L631.321 280.542C631.701 280.343 632.124 280.116 632.588 279.862L633.85 279.159C635.16 278.419 636.616 277.563 638.221 276.584L639.696 275.675L639.297 275.071C637.025 271.558 635.511 268.281 634.624 265.291L634.431 264.605C633.834 262.38 633.69 260.767 633.754 259.856C633.8 259.202 634.368 258.709 635.022 258.755Z" fill="#DD936F"/>
<path d="M617.541 258.454C618.428 258.454 619.147 259.172 619.148 260.059C619.154 266.234 614.511 271.297 608.708 271.301C602.9 271.307 598.247 266.253 598.241 260.077C598.24 259.19 598.959 258.47 599.846 258.469C600.733 258.469 601.452 259.187 601.453 260.074C601.458 264.534 604.734 268.093 608.705 268.089C612.671 268.086 615.941 264.52 615.936 260.062C615.935 259.175 616.654 258.455 617.541 258.454Z" fill="#253368"/>
<path d="M658.09 259.52C658.932 259.519 659.615 260.201 659.616 261.043C659.622 267.145 655.449 272.199 650.139 272.202C644.828 272.209 640.647 267.164 640.641 261.062C640.64 260.22 641.322 259.537 642.164 259.536C643.006 259.535 643.69 260.217 643.69 261.059C643.695 265.591 646.65 269.157 650.136 269.153C653.621 269.15 656.571 265.578 656.566 261.046C656.565 260.204 657.247 259.521 658.09 259.52Z" fill="#253368"/>
<path d="M603.21 239.916C608.779 238.634 614.36 239.369 619.398 241.219C620.598 241.659 621.478 242.058 621.978 242.321C622.763 242.734 623.064 243.705 622.651 244.49C622.238 245.275 621.267 245.576 620.482 245.163L620.094 244.975L619.939 244.904C619.464 244.689 618.912 244.462 618.292 244.234C613.788 242.581 608.804 241.924 603.931 243.046C601.778 243.542 599.722 244.38 597.781 245.596C597.029 246.066 596.038 245.838 595.567 245.087C595.096 244.335 595.324 243.344 596.076 242.873C598.326 241.464 600.715 240.491 603.21 239.916Z" fill="#253368"/>
<path d="M604.264 326.245C604.577 325.669 605.298 325.455 605.874 325.768C613.183 329.734 620.752 331.723 628.348 331.819C629.004 331.827 629.529 332.366 629.52 333.021C629.512 333.677 628.974 334.202 628.318 334.194C620.335 334.093 612.387 332.005 604.741 327.856C604.165 327.543 603.951 326.822 604.264 326.245Z" fill="#DD936F"/>
<path fill-rule="evenodd" clip-rule="evenodd" d="M771.137 579.169L769.579 580.005C754.824 587.928 736.44 582.385 728.514 567.63L654.389 429.563C646.469 414.805 652.009 396.421 666.764 388.498L668.319 387.663C683.074 379.74 701.461 385.279 709.383 400.038L783.512 538.105C791.435 552.863 785.892 571.247 771.137 579.169Z" fill="#FFC999"/>
<path fill-rule="evenodd" clip-rule="evenodd" d="M740.744 458.448L708.966 399.26C701.305 384.992 682.663 379.96 667.539 388.08C652.415 396.199 646.31 414.517 653.972 428.785L685.45 487.411L740.744 458.448Z" fill="#597EF7"/>
<path d="M709.345 398.061C709.718 397.86 710.172 397.958 710.434 398.272L710.533 398.419L742.31 457.607C742.512 457.984 742.412 458.441 742.094 458.701L741.944 458.8L686.65 487.762C686.221 487.987 685.69 487.821 685.466 487.392C685.269 487.016 685.371 486.563 685.687 486.305L685.836 486.208L740.344 457.655L708.987 399.249C708.786 398.875 708.884 398.422 709.197 398.16L709.345 398.061Z" fill="#4E5C93"/>
<path fill-rule="evenodd" clip-rule="evenodd" d="M873.811 397.343C882.011 403.386 884.435 414.237 879.309 421.979L780.355 571.372C770.764 584.769 751.029 586.952 736.468 576.225C721.781 565.403 718.096 545.687 728.317 532.58L849.168 398.796C855.189 392.129 865.874 391.5 873.811 397.343Z" fill="#FFC999"/>
<path fill-rule="evenodd" clip-rule="evenodd" d="M903.78 418.325C903.78 418.325 874.007 432.12 858.388 418.379C844.243 405.935 854.09 391.769 854.09 391.769C854.09 391.769 861.44 375.967 876.215 363.404C885.945 355.126 906.266 341.361 911.903 346.152C919.249 352.404 891.55 362.966 895.37 368.758C899.291 374.702 903.298 375.453 917.504 373.639C926.382 372.505 935.473 368.314 943.317 368.772C958.653 369.666 950.554 401.423 903.78 418.325Z" fill="#FFC999"/>
<path d="M944.353 372.583C944.897 372.274 945.589 372.464 945.898 373.008C946.208 373.553 946.017 374.244 945.473 374.554C936.947 379.398 929.085 382.395 922.069 383.928C919.6 384.467 917.409 384.784 915.52 384.926L914.722 384.977C913.99 385.015 913.455 385.015 913.128 384.998C912.502 384.966 912.022 384.433 912.054 383.808C912.086 383.183 912.619 382.702 913.245 382.734L913.57 382.742C913.963 382.744 914.56 382.725 915.35 382.666C917.135 382.531 919.221 382.23 921.585 381.713C928.38 380.229 936.027 377.313 944.353 372.583Z" fill="#DD936F"/>
<path d="M941.996 380.331C942.497 379.956 943.207 380.058 943.582 380.558C943.958 381.059 943.856 381.77 943.355 382.145L942.88 382.486C942.673 382.631 942.418 382.805 942.116 383.007C941.118 383.672 939.946 384.403 938.606 385.177C934.787 387.382 930.383 389.502 925.452 391.362C921.892 392.704 918.182 393.861 914.331 394.796C913.723 394.943 913.11 394.57 912.962 393.962C912.815 393.354 913.188 392.741 913.796 392.593C917.555 391.68 921.177 390.551 924.652 389.241C929.463 387.426 933.756 385.36 937.472 383.214L938.714 382.48C939.504 382.002 940.22 381.547 940.859 381.121L941.744 380.514C941.85 380.439 941.933 380.378 941.996 380.331Z" fill="#DD936F"/>
<path d="M934.728 392.292C935.286 392.009 935.968 392.233 936.251 392.791C936.534 393.35 936.31 394.031 935.752 394.314C928.432 398.021 922.4 400.553 917.571 402.126L916.343 402.513C915.166 402.871 914.138 403.142 913.256 403.339L912.693 403.458C912.525 403.492 912.376 403.52 912.245 403.542L911.786 403.611L911.351 403.574L910.657 403.393C910.424 403.337 910.15 403.272 909.835 403.202C904.583 402.028 898.56 401.477 892.712 402.227C886.016 403.087 880.536 405.59 876.723 410.08C876.318 410.557 875.603 410.615 875.125 410.21C874.648 409.804 874.59 409.089 874.995 408.612C879.215 403.644 885.21 400.905 892.423 399.979C898.574 399.19 904.843 399.763 910.329 400.99L911.443 401.253L911.734 401.328L912.269 401.232L912.763 401.126C913.867 400.88 915.232 400.504 916.869 399.971C921.583 398.435 927.508 395.948 934.728 392.292Z" fill="#DD936F"/>
<path d="M893.255 371.877C893.871 371.989 894.279 372.58 894.167 373.195L893.991 374.009L893.741 374.993C893.648 375.336 893.545 375.694 893.431 376.063C892.781 378.177 891.923 380.263 890.828 382.179C888.341 386.529 884.995 389.385 880.662 390.012C880.043 390.102 879.468 389.673 879.378 389.053C879.288 388.434 879.718 387.859 880.337 387.769C883.873 387.257 886.687 384.854 888.86 381.054C889.864 379.297 890.66 377.361 891.265 375.397C891.477 374.708 891.649 374.066 891.785 373.489L891.937 372.788C892.049 372.173 892.64 371.765 893.255 371.877Z" fill="#DD936F"/>
<path fill-rule="evenodd" clip-rule="evenodd" d="M637.639 658.696C659.566 644.118 688.813 649.869 702.399 671.435L848.449 903.28C859.699 921.139 854.183 945.027 836.024 957.1C817.867 969.174 793.703 965.012 781.589 947.732L624.327 723.338C609.699 702.465 615.712 673.274 637.639 658.696Z" fill="#F4B784"/>
<path fill-rule="evenodd" clip-rule="evenodd" d="M558.112 647.965C583.193 639.945 609.959 654.148 617.381 679.414L697.159 951.045C703.302 971.965 691.628 993.968 670.859 1000.61C650.09 1007.25 627.819 996.1 620.685 975.494L528.083 707.963C519.469 683.079 533.031 655.985 558.112 647.965Z" fill="#FFC999"/>
<path fill-rule="evenodd" clip-rule="evenodd" d="M677.647 587.554C704.534 589.78 814.286 719.457 860.969 760.557C857.701 772.782 768.487 854.656 768.487 854.656C768.487 854.656 770.542 864.411 771.807 870.27C748.772 889.044 704.337 899.101 704.337 899.101L704.203 907.475C633.086 939.838 538.181 908.095 538.181 908.095C538.181 908.095 536.417 906.273 537.721 899.712C505.493 899.194 436.678 858.003 436.678 858.003L446.577 837.82L418.326 808.65C418.326 808.65 495.592 668.006 519.357 628.675C540.217 594.15 559.686 584.268 559.686 584.268C559.686 584.268 629.939 583.604 677.647 587.554Z" fill="#4E5C93"/>
<path d="M555.017 617.537C555.309 616.946 556.026 616.704 556.618 616.997C557.15 617.26 557.4 617.867 557.231 618.417L557.159 618.598L439.402 856.474L440.279 857.125L440.717 857.445C442.45 858.704 444.499 860.126 446.853 861.678C453.585 866.12 461.403 870.718 470.216 875.228C490.614 885.665 513.135 894.016 537.36 899.132C538.006 899.269 538.419 899.903 538.282 900.549C538.146 901.195 537.512 901.608 536.866 901.471C512.422 896.309 489.704 887.884 469.127 877.356C460.826 873.108 453.397 868.78 446.912 864.573L445.536 863.673C443.748 862.494 442.132 861.388 440.692 860.368L438.863 859.051L437.154 857.764C436.76 857.453 436.608 856.935 436.754 856.468L436.824 856.296L555.017 617.537Z" fill="#253368"/>
<path d="M696.585 666.618C697.142 666.41 697.755 666.644 698.04 667.144L698.122 667.32L774.105 871.069C774.301 871.593 774.106 872.183 773.637 872.488L772.97 872.912C772.428 873.25 771.79 873.641 771.058 874.08L769.434 875.04C767.748 876.023 765.882 877.073 763.848 878.173C756.101 882.36 747.5 886.423 738.271 890.045C727.238 894.375 716.043 897.774 704.874 899.981C704.227 900.109 703.598 899.688 703.47 899.04C703.342 898.393 703.763 897.764 704.411 897.636C715.431 895.459 726.49 892.1 737.398 887.82C746.531 884.236 755.046 880.213 762.711 876.07L764.665 875C766.247 874.124 767.709 873.286 769.044 872.497L771.021 871.307L771.526 870.995L695.883 668.155C695.675 667.598 695.909 666.985 696.409 666.7L696.585 666.618Z" fill="#253368"/>
<path d="M646.957 591.96C647.605 591.834 648.232 592.256 648.359 592.904L652.241 612.953C653.979 621.973 655.846 631.71 657.816 642.045L659.313 649.906C667.491 692.917 675.594 736.448 683.053 777.806L686.576 797.452C694.276 840.647 700.649 878.182 705.364 908.489C705.454 909.064 705.115 909.62 704.563 909.806C695.444 912.86 686.047 915.31 676.402 917.186C632.315 925.762 587.523 922.166 548.476 912.493L546.328 911.952C544.236 911.416 542.316 910.895 540.576 910.399L538.254 909.72L536.613 909.21C536.101 909.042 535.773 908.556 535.791 908.033L535.815 907.835L590.523 639.871C590.655 639.224 591.286 638.807 591.933 638.939C592.515 639.058 592.911 639.581 592.888 640.156L592.864 640.349L538.372 907.257L540.387 907.857L542.107 908.348C544.184 908.929 546.503 909.542 549.05 910.173C587.789 919.769 632.253 923.339 675.946 914.839C684.622 913.152 693.094 910.996 701.337 908.348L702.845 907.85L700.889 895.478C696.662 869.098 691.362 838.048 685.168 803.182L682.438 787.888L680.701 778.231C674.121 741.745 667.039 703.567 659.846 665.548L655.963 645.088C653.644 632.918 651.464 621.547 649.462 611.165L646.013 593.362C645.886 592.715 646.309 592.087 646.957 591.96Z" fill="#253368"/>
<path d="M618.446 596.421C619.039 596.457 619.505 596.92 619.563 597.492L619.566 597.687L605.994 820.691C605.954 821.35 605.388 821.851 604.729 821.811C604.136 821.775 603.67 821.313 603.612 820.74L603.609 820.546L617.181 597.541C617.221 596.883 617.787 596.381 618.446 596.421Z" fill="#253368"/>
<path d="M586.509 590.572C587.076 590.751 587.415 591.312 587.333 591.882L587.289 592.071L539.391 743.887C539.193 744.517 538.521 744.866 537.892 744.668C537.325 744.489 536.986 743.927 537.068 743.358L537.112 743.168L585.01 591.352C585.188 590.786 585.75 590.447 586.319 590.529L586.509 590.572Z" fill="#253368"/>
<path fill-rule="evenodd" clip-rule="evenodd" d="M554.536 587.002L556.633 571.638C556.633 571.638 621.853 575.404 681.404 572.684C682.88 579.516 680.033 588.675 680.033 588.675C675.047 584.543 620.913 596.311 554.536 587.002Z" fill="#4E5C93"/>
<path d="M673.645 587.453C674.304 587.425 674.861 587.937 674.889 588.596C674.917 589.256 674.405 589.813 673.746 589.841L667.567 590.091C641.891 591.082 617.09 591.448 595.003 591.305L592.366 591.285C584.502 591.22 577.408 591.088 571.708 590.917L567.449 590.772C565.686 590.703 564.213 590.633 563.101 590.565L562.701 590.54C562.017 590.495 561.507 590.451 561.176 590.41C560.963 590.383 560.81 590.357 560.672 590.316L560.579 590.304C560.468 590.276 560.37 590.172 559.884 589.648L560.03 588.86C560.192 588.031 560.262 588.025 560.611 587.993C560.861 587.908 561.119 587.911 561.353 587.985L561.49 588.039L562.275 588.113L563.677 588.205C565.007 588.28 566.786 588.359 568.909 588.434L572.8 588.558C578.299 588.714 585.001 588.833 592.386 588.895C616.837 589.1 644.785 588.674 673.645 587.453Z" fill="#253368"/>
<path fill-rule="evenodd" clip-rule="evenodd" d="M679.597 427.365C684.4 441.78 693.489 466.68 693.236 482.449C692.827 508.011 674.295 525.043 674.295 525.043C674.295 525.043 674.943 517.581 666.186 582.973C589.27 587.978 542.687 568.648 542.687 568.648L546.055 551.429L538.283 509.009C538.283 509.009 532.503 492.897 520.931 457.095C512.881 432.204 516.831 402.867 519.985 387.295C521.339 380.625 526.653 375.471 533.367 374.352C556.824 370.436 565.464 371.175 565.464 371.175L569.247 356.395C569.895 353.864 572.305 352.196 574.904 352.48L630.379 358.534C632.763 358.793 634.668 360.635 635.009 363.007L637.343 379.307L686.074 385.313C691.352 386.96 679.795 396.329 679.764 401.857L679.597 427.365Z" fill="#597EF7"/>
<path d="M630.976 378.153C631.501 378.211 631.881 378.683 631.823 379.209C631.773 379.676 631.393 380.028 630.941 380.06L630.768 380.057L580.814 374.608C580.288 374.55 579.909 374.078 579.966 373.552C580.017 373.085 580.396 372.733 580.849 372.701L581.022 372.704L630.976 378.153Z" fill="#4E5C93"/>
<path d="M564.562 366.829C565.079 366.504 565.745 366.611 566.136 367.054L566.256 367.214L611.732 439.459L638.965 379.668C639.218 379.113 639.834 378.837 640.404 378.992L640.592 379.06C641.148 379.313 641.424 379.928 641.269 380.499L641.201 380.687L613.024 442.549C612.646 443.379 611.548 443.507 610.98 442.848L610.867 442.694L564.177 368.523C563.816 367.948 563.988 367.19 564.562 366.829Z" fill="#CCD7EE"/>
<path fill-rule="evenodd" clip-rule="evenodd" d="M626.459 448.853C630.977 458.802 627.203 470.247 618.028 474.416C608.849 478.585 597.744 473.903 593.226 463.956C588.705 454.006 592.482 442.562 601.661 438.393C610.836 434.224 621.938 438.906 626.459 448.853Z" fill="#CCD7EE"/>
<path fill-rule="evenodd" clip-rule="evenodd" d="M628.454 449.024C632.975 458.971 629.199 470.418 620.023 474.587C610.844 478.756 599.74 474.07 595.222 464.124C590.701 454.177 594.477 442.733 603.656 438.564C612.831 434.395 623.933 439.077 628.454 449.024Z" fill="#E4EBF7"/>
<path fill-rule="evenodd" clip-rule="evenodd" d="M624.76 450.269C628.27 457.994 625.338 466.877 618.211 470.114C611.088 473.352 602.467 469.715 598.956 461.993C595.449 454.272 598.378 445.385 605.502 442.148C612.628 438.908 621.249 442.544 624.76 450.269Z" fill="#FAAD14"/>
<path d="M520.116 386.348C520.639 386.42 521.006 386.903 520.933 387.427L520.385 391.616C520.22 392.924 520.047 394.318 519.871 395.782C519.118 402.058 518.45 408.345 517.948 414.228L517.773 416.341C517.138 424.31 516.897 430.744 517.143 435.112C517.421 440.031 519.612 448.566 523.244 459.655C523.864 461.547 524.52 463.496 525.209 465.495C526.79 470.078 528.484 474.758 530.215 479.369L531.895 483.796L533.796 488.684L534.405 490.227L534.486 490.454L547.84 551.624L547.841 552.024L544.294 568.948L545.223 569.242L546.801 569.721L548.686 570.27C550.962 570.922 553.509 571.609 556.313 572.316C587.811 580.255 624.828 584.637 664.042 581.965L665.522 581.859L666.237 576.603L669.341 554.975L673.427 527.002L673.592 526.59L674.265 525.607L674.948 524.585C675.304 524.046 675.682 523.465 676.079 522.845C677.97 519.89 679.901 516.663 681.757 513.27C684.502 508.253 686.84 503.316 688.604 498.621C690.354 493.962 691.485 489.68 691.9 485.876C692.924 476.495 692.441 469.194 690.403 461.434C689.418 457.682 688.067 453.762 686.063 448.715L685.02 446.142L678.422 430.381L678.351 429.945L679.465 414.288C679.502 413.761 679.96 413.364 680.488 413.401C680.956 413.434 681.322 413.8 681.371 414.251L681.374 414.424L680.276 429.85L686.257 444.124L687.429 446.975L688.241 449.02C690.056 453.655 691.315 457.367 692.255 460.947C694.354 468.939 694.852 476.475 693.803 486.084C693.369 490.065 692.198 494.497 690.396 499.295C688.597 504.082 686.222 509.098 683.436 514.189C681.826 517.132 680.161 519.951 678.513 522.579L677.691 523.877C677.155 524.715 676.652 525.483 676.191 526.174L675.289 527.502L668.757 572.457C667.947 578.148 667.449 581.772 667.33 582.861C667.28 583.32 666.91 583.678 666.45 583.712C626.169 586.73 588.133 582.311 555.845 574.172C552.617 573.358 549.725 572.57 547.19 571.831L545.159 571.226L542.981 570.539C542.94 570.525 542.904 570.513 542.874 570.503C542.472 570.367 542.215 569.987 542.223 569.577L542.244 569.399L545.924 551.831L532.663 491.015L531.524 488.137L530.477 485.441C530.234 484.812 529.985 484.162 529.729 483.494C527.543 477.769 525.382 471.87 523.399 466.119L522.386 463.145C522.221 462.656 522.059 462.17 521.899 461.688L521.425 460.251C517.741 449.005 515.522 440.36 515.232 435.22C514.969 430.561 515.244 423.698 515.946 415.185L516.04 414.065C516.472 409.002 517.026 403.644 517.652 398.252L517.97 395.554C518.191 393.718 518.406 391.993 518.609 390.407L519.037 387.166C519.109 386.642 519.592 386.276 520.116 386.348Z" fill="#4E5C93"/>
<path fill-rule="evenodd" clip-rule="evenodd" d="M652.545 588.764C654.689 579.206 648.932 569.653 639.481 567.078L457.025 517.402C440.108 513.39 423.17 523.977 419.37 540.944C415.536 558.06 426.559 574.972 443.764 578.378L632.301 602.929C641.697 604.152 650.477 598.01 652.545 588.764Z" fill="#FFC999"/>
<path fill-rule="evenodd" clip-rule="evenodd" d="M432.786 573.817L433.328 574.154C448.112 583.298 467.511 578.728 476.659 563.945L564.551 421.872C573.695 407.088 569.126 387.686 554.342 378.541L553.8 378.205C539.016 369.057 519.616 373.63 510.469 388.414L422.58 530.487C413.432 545.271 418.002 564.67 432.786 573.817Z" fill="#FFC999"/>
<path fill-rule="evenodd" clip-rule="evenodd" d="M474.612 446.376L512.779 384.682C521.979 369.808 541.674 365.168 556.551 374.368C571.421 383.568 576.061 403.263 566.861 418.137L529.058 479.248L474.612 446.376Z" fill="#597EF7"/>
<path d="M559.503 425.892C559.779 425.441 560.369 425.299 560.82 425.575C561.22 425.82 561.377 426.313 561.213 426.736L561.136 426.891L529.091 479.262C528.847 479.661 528.357 479.818 527.934 479.657L527.78 479.582L473.337 446.711C472.884 446.437 472.739 445.849 473.012 445.396C473.255 444.994 473.747 444.834 474.171 444.996L474.327 445.072L527.952 477.451L559.503 425.892Z" fill="#4E5C93"/>
<path fill-rule="evenodd" clip-rule="evenodd" d="M666.264 616.473C666.264 616.473 632.49 613.052 627.197 593.753C622.402 576.27 639.259 569.384 639.259 569.384C639.259 569.384 654.936 559.884 675.08 556.805C688.349 554.779 713.98 553.482 715.986 560.307C718.604 569.209 689.511 568.988 689.369 575.74C689.22 582.665 695.228 583.157 708.52 588.767C716.825 592.274 726.396 592.461 732.873 596.779C745.53 605.212 716.495 625.824 666.264 616.473Z" fill="#FFC999"/>
<path d="M690.609 593.469C691.008 592.948 691.754 592.85 692.274 593.249L692.721 593.569C692.982 593.748 693.326 593.974 693.751 594.24C695.01 595.025 696.502 595.846 698.22 596.66C706.75 600.699 717.165 602.992 729.245 602.269C729.899 602.229 730.462 602.728 730.501 603.383C730.54 604.038 730.041 604.6 729.387 604.64C716.885 605.388 706.078 603.009 697.204 598.807C695.4 597.952 693.828 597.088 692.494 596.255L691.861 595.851C691.386 595.54 691.041 595.296 690.83 595.134C690.309 594.735 690.21 593.99 690.609 593.469Z" fill="#DD936F"/>
<path d="M684.083 604.219C684.369 603.629 685.079 603.382 685.67 603.668C694.694 608.043 704.58 609.799 713.785 609.844L714.994 609.839C715.379 609.833 715.745 609.823 716.092 609.811L717.302 609.751C717.42 609.743 717.513 609.736 717.579 609.73C718.232 609.67 718.809 610.152 718.868 610.805C718.928 611.458 718.446 612.036 717.793 612.095L717.258 612.134C717.1 612.143 716.916 612.153 716.708 612.163C715.851 612.203 714.868 612.225 713.773 612.219C704.243 612.173 694.022 610.357 684.634 605.806C684.043 605.519 683.797 604.809 684.083 604.219Z" fill="#DD936F"/>
<path d="M673.282 610.263C673.628 609.705 674.36 609.534 674.918 609.879L675.146 610.013C675.294 610.095 675.492 610.201 675.741 610.326L676.006 610.459C676.969 610.933 678.146 611.44 679.541 611.957C685.358 614.112 692.902 615.731 702.272 616.368C702.926 616.413 703.42 616.979 703.376 617.634C703.331 618.288 702.765 618.782 702.11 618.738C692.513 618.085 684.746 616.418 678.716 614.184C677.489 613.73 676.416 613.28 675.493 612.847L674.957 612.59C674.322 612.277 673.893 612.039 673.666 611.898C673.108 611.552 672.937 610.82 673.282 610.263Z" fill="#DD936F"/>
<path d="M762.896 494.118C763.327 493.664 764.044 493.645 764.498 494.076C764.902 494.459 764.961 495.068 764.667 495.518L764.54 495.678L742.357 519.048C741.927 519.502 741.209 519.521 740.755 519.09C740.352 518.707 740.292 518.097 740.586 517.648L740.713 517.487L762.896 494.118Z" fill="#DD936F"/>
</g>
<defs>
<clipPath id="clip0_11348_9411">
<rect width="1440" height="717" fill="white"/>
</clipPath>
</defs>
</svg>
