<svg width="24" height="24" viewBox="0 0 24 24" fill="none" xmlns="http://www.w3.org/2000/svg">
<path d="M12 15C13 15 13 10.5523 13 10C13 9.44772 12.5523 9 12 9C11.4477 9 11 9.44772 11 10C11 10.5523 11 15 12 15Z" fill="white"/>
<path d="M12 18C12.5523 18 13 17.5523 13 17C13 16.4477 12.5523 16 12 16C11.4477 16 11 16.4477 11 17C11 17.5523 11.4477 18 12 18Z" fill="white"/>
<path fill-rule="evenodd" clip-rule="evenodd" d="M12.8779 3.02115C12.7027 2.69989 12.3659 2.5 12 2.5C11.6341 2.5 11.2973 2.69989 11.1221 3.02115L2.1221 19.5211C1.9531 19.831 1.95994 20.207 2.1401 20.5105C2.32026 20.814 2.64706 21 3 21H21C21.3529 21 21.6797 20.814 21.8599 20.5105C22.0401 20.207 22.0469 19.831 21.8779 19.5211L12.8779 3.02115ZM12 5.58833L19.3155 19H4.68454L12 5.58833Z" fill="white"/>
</svg>
