<svg width="24" height="24" viewBox="0 0 24 24" fill="none" xmlns="http://www.w3.org/2000/svg">
<path d="M5 12C5 11.4477 4.55228 11 4 11C3.44772 11 3 11.4477 3 12H5ZM4 20H3H4ZM21 12C21 11.4477 20.5523 11 20 11C19.4477 11 19 11.4477 19 12H21ZM15.2929 6.70711C15.6834 7.09763 16.3166 7.09763 16.7071 6.70711C17.0976 6.31658 17.0976 5.68342 16.7071 5.29289L15.2929 6.70711ZM12 2L12.7071 1.29289C12.5196 1.10536 12.2652 1 12 1C11.7348 1 11.4804 1.10536 11.2929 1.29289L12 2ZM7.29289 5.29289C6.90237 5.68342 6.90237 6.31658 7.29289 6.70711C7.68342 7.09763 8.31658 7.09763 8.70711 6.70711L7.29289 5.29289ZM11 15C11 15.5523 11.4477 16 12 16C12.5523 16 13 15.5523 13 15L11 15ZM3 12V20H5V12H3ZM3 20C3 20.7956 3.31607 21.5587 3.87868 22.1213L5.29289 20.7071C5.10536 20.5196 5 20.2652 5 20H3ZM3.87868 22.1213C4.44129 22.6839 5.20435 23 6 23V21C5.73479 21 5.48043 20.8946 5.29289 20.7071L3.87868 22.1213ZM6 23H18V21H6V23ZM18 23C18.7957 23 19.5587 22.6839 20.1213 22.1213L18.7071 20.7071C18.5196 20.8946 18.2652 21 18 21V23ZM20.1213 22.1213C20.6839 21.5587 21 20.7956 21 20H19C19 20.2652 18.8946 20.5196 18.7071 20.7071L20.1213 22.1213ZM21 20V12H19V20H21ZM16.7071 5.29289L12.7071 1.29289L11.2929 2.70711L15.2929 6.70711L16.7071 5.29289ZM11.2929 1.29289L7.29289 5.29289L8.70711 6.70711L12.7071 2.70711L11.2929 1.29289ZM11 2L11 15L13 15L13 2L11 2Z"
      fill="white"/>
</svg>
