<svg width="24" height="24" viewBox="0 0 24 24" fill="none" xmlns="http://www.w3.org/2000/svg">
<path fill-rule="evenodd" clip-rule="evenodd" d="M12 8C9.79086 8 8 9.79086 8 12C8 14.2091 9.79086 16 12 16C14.2091 16 16 14.2091 16 12C16 9.79086 14.2091 8 12 8ZM10 12C10 10.8954 10.8954 10 12 10C13.1046 10 14 10.8954 14 12C14 13.1046 13.1046 14 12 14C10.8954 14 10 13.1046 10 12Z" fill="white"/>
<path fill-rule="evenodd" clip-rule="evenodd" d="M10.1818 1C9.69853 1 9.2844 1.34562 9.19795 1.82111L8.93913 3.24464C8.60834 3.36028 8.28614 3.4941 7.97375 3.64488L6.78382 2.82108C6.38646 2.54599 5.84923 2.59443 5.5075 2.93617L2.9362 5.50746C2.59447 5.8492 2.54602 6.38643 2.82112 6.78378L3.64491 7.9737C3.49411 8.28611 3.36028 8.60832 3.24464 8.93912L1.82111 9.19795C1.34562 9.2844 1 9.69853 1 10.1818V13.8182C1 14.3015 1.34562 14.7156 1.82111 14.8021L3.24464 15.0609C3.36028 15.3917 3.49411 15.7139 3.6449 16.0263L2.82111 17.2162C2.54602 17.6136 2.59446 18.1508 2.9362 18.4925L5.50749 21.0638C5.84923 21.4056 6.38646 21.454 6.78381 21.1789L7.97374 20.3551C8.28613 20.5059 8.60833 20.6397 8.93913 20.7554L9.19795 22.1789C9.2844 22.6544 9.69853 23 10.1818 23H13.8182C14.3015 23 14.7156 22.6544 14.8021 22.1789L15.0609 20.7554C15.3917 20.6397 15.7139 20.5059 16.0263 20.3551L17.2162 21.1789C17.6136 21.454 18.1508 21.4055 18.4925 21.0638L21.0638 18.4925C21.4056 18.1508 21.454 17.6136 21.1789 17.2162L20.3551 16.0262C20.5059 15.7139 20.6397 15.3917 20.7554 15.0609L22.1789 14.8021C22.6544 14.7156 23 14.3015 23 13.8182V10.1818C23 9.69853 22.6544 9.2844 22.1789 9.19795L20.7554 8.93913C20.6397 8.60833 20.5059 8.28614 20.3551 7.97374L21.1789 6.78379C21.454 6.38644 21.4056 5.84921 21.0638 5.50748L18.4925 2.93618C18.1508 2.59445 17.6136 2.546 17.2162 2.82109L16.0263 3.6449C15.7139 3.49411 15.3917 3.36028 15.0609 3.24464L14.8021 1.82111C14.7156 1.34562 14.3015 1 13.8182 1H10.1818ZM10.7986 4.19784L11.0164 3H12.9836L13.2014 4.19784C13.2703 4.57658 13.5504 4.88217 13.9217 4.98361C14.5152 5.14573 15.0786 5.38126 15.6016 5.68006C15.936 5.87106 16.3503 5.85313 16.6669 5.63395L17.6685 4.94053L19.0595 6.33156L18.3661 7.33317C18.1469 7.64976 18.129 8.06407 18.32 8.39842C18.6187 8.92145 18.8543 9.48481 19.0164 10.0783C19.1178 10.4496 19.4234 10.7297 19.8022 10.7986L21 11.0164V12.9836L19.8022 13.2014C19.4234 13.2703 19.1178 13.5504 19.0164 13.9217C18.8543 14.5152 18.6187 15.0785 18.32 15.6016C18.129 15.9359 18.1469 16.3502 18.3661 16.6668L19.0595 17.6684L17.6685 19.0595L16.6669 18.366C16.3503 18.1469 15.936 18.1289 15.6016 18.3199C15.0786 18.6187 14.5152 18.8543 13.9217 19.0164C13.5504 19.1178 13.2703 19.4234 13.2014 19.8022L12.9836 21H11.0164L10.7986 19.8022C10.7297 19.4234 10.4496 19.1178 10.0783 19.0164C9.48481 18.8543 8.92144 18.6187 8.39842 18.32C8.06407 18.129 7.64976 18.1469 7.33317 18.3661L6.33157 19.0595L4.94054 17.6684L5.63395 16.6669C5.85313 16.3503 5.87106 15.936 5.68006 15.6016C5.38126 15.0786 5.14573 14.5152 4.98361 13.9217C4.88217 13.5504 4.57658 13.2703 4.19784 13.2014L3 12.9836V11.0164L4.19784 10.7986C4.57658 10.7297 4.88217 10.4496 4.98361 10.0783C5.14573 9.4848 5.38126 8.92142 5.68006 8.39838C5.87107 8.06404 5.85314 7.64972 5.63396 7.33313L4.94055 6.33154L6.33158 4.94051L7.33318 5.63393C7.64977 5.85311 8.06408 5.87104 8.39843 5.68004C8.92145 5.38125 9.48482 5.14572 10.0783 4.98361C10.4496 4.88217 10.7297 4.57658 10.7986 4.19784Z" fill="white"/>
</svg>
