<svg id="visual" viewBox="0 0 900 450" width="900" height="450" xmlns="http://www.w3.org/2000/svg" version="1.1">
    <path d="M0 329L37.5 320C75 311 150 293 225 283.5C300 274 375 273 450 264.5C525 256 600 240 675 231.7C750 223.3 825 222.7 862.5 222.3L900 222L900 0L862.5 0C825 0 750 0 675 0C600 0 525 0 450 0C375 0 300 0 225 0C150 0 75 0 37.5 0L0 0Z"
          fill="#b83265"></path>
    <path d="M0 245L37.5 232.7C75 220.3 150 195.7 225 194.5C300 193.3 375 215.7 450 237.5C525 259.3 600 280.7 675 279.3C750 278 825 254 862.5 242L900 230L900 0L862.5 0C825 0 750 0 675 0C600 0 525 0 450 0C375 0 300 0 225 0C150 0 75 0 37.5 0L0 0Z"
          fill="#bf436e"></path>
    <path d="M0 193L37.5 186.8C75 180.7 150 168.3 225 164.2C300 160 375 164 450 177.7C525 191.3 600 214.7 675 219.2C750 223.7 825 209.3 862.5 202.2L900 195L900 0L862.5 0C825 0 750 0 675 0C600 0 525 0 450 0C375 0 300 0 225 0C150 0 75 0 37.5 0L0 0Z"
          fill="#c75285"></path>
    <path d="M0 122L37.5 124.8C75 127.7 150 133.3 225 129.8C300 126.3 375 113.7 450 104.3C525 95 600 89 675 94C750 99 825 115 862.5 123L900 131L900 0L862.5 0C825 0 750 0 675 0C600 0 525 0 450 0C375 0 300 0 225 0C150 0 75 0 37.5 0L0 0Z"
          fill="#cf608b"></path>
    <path d="M0 112L37.5 109.8C75 107.7 150 103.3 225 92.8C300 82.3 375 65.7 450 62.7C525 59.7 600 70.3 675 74.5C750 78.7 825 76.3 862.5 75.2L900 74L900 0L862.5 0C825 0 750 0 675 0C600 0 525 0 450 0C375 0 300 0 225 0C150 0 75 0 37.5 0L0 0Z"
          fill="#d86da3"></path>
</svg>
