<svg width="24" height="24" viewBox="0 0 24 24" fill="none" xmlns="http://www.w3.org/2000/svg">
    <path fill-rule="evenodd" clip-rule="evenodd"
          d="M11.4118 3C6.23529 3 2 7.23529 2 12.4118C2 16.5294 4.70588 20.0588 8.47059 21.3529C8.94118 21.4706 9.05882 21.1176 9.05882 20.8824C9.05882 20.6471 9.05882 20.0588 9.05882 19.2353C6.47059 19.8235 5.88235 18.0588 5.88235 18.0588C5.41176 17 4.82353 16.6471 4.82353 16.6471C4 16.0588 4.94118 16.0588 4.94118 16.0588C5.88235 16.1765 6.35294 17 6.35294 17C7.17647 18.5294 8.58824 18.0588 9.05882 17.8235C9.17647 17.2353 9.41176 16.7647 9.64706 16.5294C7.52941 16.2941 5.41176 15.4706 5.41176 11.8235C5.41176 10.7647 5.76471 9.94118 6.35294 9.35294C6.23529 9.11765 5.88235 8.17647 6.47059 6.88235C6.47059 6.88235 7.29412 6.64706 9.05882 7.82353C9.76471 7.58824 10.5882 7.47059 11.4118 7.47059C12.2353 7.47059 13.0588 7.58824 13.7647 7.82353C15.5294 6.64706 16.3529 6.88235 16.3529 6.88235C16.8235 8.17647 16.5882 9.11765 16.4706 9.35294C17.0588 10.0588 17.4118 10.8824 17.4118 11.8235C17.4118 15.4706 15.1765 16.1765 13.0588 16.4118C13.4118 16.8824 13.7647 17.4706 13.7647 18.2941C13.7647 19.5882 13.7647 20.5294 13.7647 20.8824C13.7647 21.1176 13.8824 21.4706 14.4706 21.3529C18.2353 20.0588 20.9412 16.5294 20.9412 12.4118C20.8235 7.23529 16.5882 3 11.4118 3V3Z"
          fill="#324552"/>
</svg>
