<svg width="24" height="24" viewBox="0 0 24 24" fill="none" xmlns="http://www.w3.org/2000/svg">
    <path fill-rule="evenodd" clip-rule="evenodd"
          d="M22 5.875C21.25 6.25 20.5 6.375 19.625 6.5C20.5 6 21.125 5.25 21.375 4.25C20.625 4.75 19.75 5 18.75 5.25C18 4.5 16.875 4 15.75 4C13.625 4 11.75 5.875 11.75 8.125C11.75 8.5 11.75 8.75 11.875 9C8.5 8.875 5.375 7.25 3.375 4.75C3 5.375 2.875 6 2.875 6.875C2.875 8.25 3.625 9.5 4.75 10.25C4.125 10.25 3.5 10 2.875 9.75V9.75C2.875 11.75 4.25 13.375 6.125 13.75C5.75 13.875 5.375 13.875 5 13.875C4.75 13.875 4.5 13.875 4.25 13.75C4.75 15.375 6.25 16.625 8.125 16.625C6.75 17.75 5 18.375 3 18.375C2.625 18.375 2.375 18.375 2 18.375C3.875 19.5 6 20.25 8.25 20.25C15.75 20.25 19.875 14 19.875 8.625C19.875 8.5 19.875 8.25 19.875 8.125C20.75 7.5 21.5 6.75 22 5.875V5.875Z"
          fill="#324552"/>
</svg>
