<svg width="24" height="24" viewBox="0 0 24 24" fill="none" xmlns="http://www.w3.org/2000/svg">
    <path d="M20.9618 12.79L21.9576 12.882C21.9938 12.4895 21.7962 12.1124 21.4528 11.9188C21.1094 11.7253 20.6844 11.7515 20.3674 11.9858L20.9618 12.79ZM11.1718 3L11.976 3.59441C12.2103 3.27744 12.2365 2.85241 12.043 2.50902C11.8495 2.16564 11.4723 1.96797 11.0798 2.00424L11.1718 3ZM19.9661 12.698C19.8262 14.2111 19.2584 15.653 18.3289 16.8551L19.9112 18.0785C21.073 16.5758 21.7828 14.7734 21.9576 12.882L19.9661 12.698ZM18.3289 16.8551C17.3995 18.0572 16.1469 18.9698 14.7178 19.486L15.3972 21.3671C17.1837 20.7218 18.7494 19.5811 19.9112 18.0785L18.3289 16.8551ZM14.7178 19.486C13.2887 20.0022 11.742 20.1008 10.2589 19.7701L9.82368 21.7221C11.6776 22.1355 13.6108 22.0123 15.3972 21.3671L14.7178 19.486ZM10.2589 19.7701C8.77585 19.4394 7.41761 18.6931 6.34315 17.6187L4.92893 19.0329C6.27201 20.376 7.96981 21.3088 9.82368 21.7221L10.2589 19.7701ZM6.34315 17.6187C5.26869 16.5442 4.52245 15.186 4.19175 13.7029L2.23969 14.1381C2.65306 15.992 3.58586 17.6898 4.92893 19.0329L6.34315 17.6187ZM4.19175 13.7029C3.86106 12.2198 3.95958 10.6732 4.4758 9.24402L2.59475 8.56457C1.94948 10.351 1.82632 12.2843 2.23969 14.1381L4.19175 13.7029ZM4.4758 9.24402C4.99202 7.81488 5.90457 6.5623 7.10669 5.63287L5.88336 4.05064C4.38072 5.21243 3.24002 6.77814 2.59475 8.56457L4.4758 9.24402ZM7.10669 5.63287C8.30881 4.70344 9.75077 4.13558 11.2638 3.99576L11.0798 2.00424C9.18846 2.17903 7.38601 2.88884 5.88336 4.05064L7.10669 5.63287ZM10.3677 2.40559C9.22869 3.94647 8.68062 5.84496 8.82312 7.75578L10.8176 7.60705C10.7107 6.17394 11.1218 4.75007 11.976 3.59441L10.3677 2.40559ZM8.82312 7.75578C8.96561 9.6666 9.78921 11.4628 11.1441 12.8177L12.5583 11.4035C11.5421 10.3873 10.9244 9.04016 10.8176 7.60705L8.82312 7.75578ZM11.1441 12.8177C12.499 14.1726 14.2952 14.9962 16.206 15.1387L16.3548 13.1442C14.9217 13.0374 13.5745 12.4197 12.5583 11.4035L11.1441 12.8177ZM16.206 15.1387C18.1169 15.2812 20.0153 14.7331 21.5562 13.5942L20.3674 11.9858C19.2118 12.8401 17.7879 13.2511 16.3548 13.1442L16.206 15.1387Z"
          fill="#324552"/>
</svg>
