<svg width="24" height="24" viewBox="0 0 24 24" fill="none" xmlns="http://www.w3.org/2000/svg">
<circle cx="12" cy="11.9999" r="12" fill="#324552"/>
<path d="M8.5 11.9999C8.5 11.9999 9.7725 9.49994 12 9.49994C14.227 9.49994 15.5 11.9999 15.5 11.9999C15.5 11.9999 14.227 14.4999 12 14.4999C9.7725 14.4999 8.5 11.9999 8.5 11.9999Z" stroke="white" stroke-linecap="round" stroke-linejoin="round"/>
<path d="M12 12.4999C12.1326 12.4999 12.2598 12.4473 12.3536 12.3535C12.4473 12.2597 12.5 12.1325 12.5 11.9999C12.5 11.8673 12.4473 11.7402 12.3536 11.6464C12.2598 11.5526 12.1326 11.4999 12 11.4999C11.8674 11.4999 11.7402 11.5526 11.6464 11.6464C11.5527 11.7402 11.5 11.8673 11.5 11.9999C11.5 12.1325 11.5527 12.2597 11.6464 12.3535C11.7402 12.4473 11.8674 12.4999 12 12.4999V12.4999Z" stroke="white" stroke-linecap="round" stroke-linejoin="round"/>
<path d="M16.5 13.9999V15.4999C16.5 15.7652 16.3946 16.0195 16.2071 16.207C16.0196 16.3946 15.7652 16.4999 15.5 16.4999H8.5C8.23478 16.4999 7.98043 16.3946 7.79289 16.207C7.60536 16.0195 7.5 15.7652 7.5 15.4999V13.9999M16.5 9.99994V8.49994C16.5 8.23472 16.3946 7.98037 16.2071 7.79283C16.0196 7.6053 15.7652 7.49994 15.5 7.49994H8.5C8.23478 7.49994 7.98043 7.6053 7.79289 7.79283C7.60536 7.98037 7.5 8.23472 7.5 8.49994V9.99994H16.5Z" stroke="white" stroke-linecap="round" stroke-linejoin="round"/>
</svg>
