<svg width="24" height="24" viewBox="0 0 24 24" fill="none" xmlns="http://www.w3.org/2000/svg">
    <path d="M9.09348 12.646C8.6163 12.3679 8.00406 12.5293 7.72599 13.0065C7.44793 13.4837 7.60934 14.0959 8.08652 14.374L9.09348 12.646ZM14.9165 18.354C15.3937 18.6321 16.0059 18.4707 16.284 17.9935C16.5621 17.5163 16.4007 16.9041 15.9235 16.626L14.9165 18.354ZM15.914 7.37369C16.391 7.09532 16.5521 6.48297 16.2737 6.00597C15.9953 5.52897 15.383 5.36795 14.906 5.64631L15.914 7.37369ZM8.08597 9.62631C7.60897 9.90468 7.44795 10.517 7.72631 10.994C8.00468 11.471 8.61703 11.6321 9.09403 11.3537L8.08597 9.62631ZM20 5C20 6.10457 19.1046 7 18 7V9C20.2091 9 22 7.20914 22 5H20ZM18 7C16.8954 7 16 6.10457 16 5H14C14 7.20914 15.7909 9 18 9V7ZM16 5C16 3.89543 16.8954 3 18 3V1C15.7909 1 14 2.79086 14 5H16ZM18 3C19.1046 3 20 3.89543 20 5H22C22 2.79086 20.2091 1 18 1V3ZM8 12C8 13.1046 7.10457 14 6 14V16C8.20914 16 10 14.2091 10 12H8ZM6 14C4.89543 14 4 13.1046 4 12H2C2 14.2091 3.79086 16 6 16V14ZM4 12C4 10.8954 4.89543 10 6 10V8C3.79086 8 2 9.79086 2 12H4ZM6 10C7.10457 10 8 10.8954 8 12H10C10 9.79086 8.20914 8 6 8V10ZM20 19C20 20.1046 19.1046 21 18 21V23C20.2091 23 22 21.2091 22 19H20ZM18 21C16.8954 21 16 20.1046 16 19H14C14 21.2091 15.7909 23 18 23V21ZM16 19C16 17.8954 16.8954 17 18 17V15C15.7909 15 14 16.7909 14 19H16ZM18 17C19.1046 17 20 17.8954 20 19H22C22 16.7909 20.2091 15 18 15V17ZM8.08652 14.374L14.9165 18.354L15.9235 16.626L9.09348 12.646L8.08652 14.374ZM14.906 5.64631L8.08597 9.62631L9.09403 11.3537L15.914 7.37369L14.906 5.64631Z"
          fill="#324552"/>
</svg>
